<svg width="12" height="12" viewBox="0 0 12 12" fill="none" xmlns="http://www.w3.org/2000/svg">
<g clip-path="url(#clip0_143_5)">
<path fill-rule="evenodd" clip-rule="evenodd" d="M8.51597 4.23456C8.5509 4.26939 8.5786 4.31078 8.59751 4.35633C8.61641 4.40189 8.62614 4.45073 8.62614 4.50006C8.62614 4.54939 8.61641 4.59823 8.59751 4.64379C8.5786 4.68934 8.5509 4.73073 8.51597 4.76556L6.26597 7.01556C6.23114 7.05048 6.18976 7.07819 6.1442 7.09709C6.09864 7.116 6.0498 7.12573 6.00047 7.12573C5.95115 7.12573 5.90231 7.116 5.85675 7.09709C5.81119 7.07819 5.76981 7.05048 5.73497 7.01556L4.60997 5.89056C4.57511 5.85569 4.54745 5.8143 4.52858 5.76875C4.50971 5.72319 4.5 5.67437 4.5 5.62506C4.5 5.57575 4.50971 5.52693 4.52858 5.48137C4.54745 5.43582 4.57511 5.39443 4.60997 5.35956C4.64484 5.32469 4.68623 5.29704 4.73179 5.27817C4.77734 5.2593 4.82617 5.24959 4.87547 5.24959C4.92478 5.24959 4.97361 5.2593 5.01916 5.27817C5.06472 5.29704 5.10611 5.32469 5.14097 5.35956L6.00047 6.21981L7.98497 4.23456C8.01981 4.19964 8.06119 4.17193 8.10675 4.15303C8.15231 4.13412 8.20115 4.12439 8.25047 4.12439C8.2998 4.12439 8.34864 4.13412 8.3942 4.15303C8.43976 4.17193 8.48114 4.19964 8.51597 4.23456Z" fill="#3B5D50"/>
<path fill-rule="evenodd" clip-rule="evenodd" d="M0 1.125C0 1.02554 0.0395088 0.930161 0.109835 0.859835C0.180161 0.789509 0.275544 0.75 0.375 0.75H1.5C1.58365 0.750023 1.66489 0.778013 1.7308 0.829519C1.79671 0.881024 1.84351 0.953088 1.86375 1.03425L2.1675 2.25H10.875C10.9301 2.25005 10.9844 2.26223 11.0343 2.28566C11.0841 2.3091 11.1281 2.34322 11.1633 2.3856C11.1984 2.42798 11.2238 2.47759 11.2377 2.53089C11.2515 2.58419 11.2534 2.63988 11.2433 2.694L10.1183 8.694C10.1022 8.77993 10.0566 8.85755 9.98932 8.91342C9.92208 8.96929 9.83743 8.99992 9.75 9H3C2.91257 8.99992 2.82792 8.96929 2.76068 8.91342C2.69344 8.85755 2.64784 8.77993 2.63175 8.694L1.5075 2.70525L1.2075 1.5H0.375C0.275544 1.5 0.180161 1.46049 0.109835 1.39017C0.0395088 1.31984 0 1.22446 0 1.125ZM2.3265 3L3.31125 8.25H9.43875L10.4235 3H2.3265ZM3.75 9C3.35218 9 2.97064 9.15804 2.68934 9.43934C2.40804 9.72064 2.25 10.1022 2.25 10.5C2.25 10.8978 2.40804 11.2794 2.68934 11.5607C2.97064 11.842 3.35218 12 3.75 12C4.14783 12 4.52936 11.842 4.81066 11.5607C5.09197 11.2794 5.25 10.8978 5.25 10.5C5.25 10.1022 5.09197 9.72064 4.81066 9.43934C4.52936 9.15804 4.14783 9 3.75 9ZM9 9C8.60218 9 8.22065 9.15804 7.93934 9.43934C7.65804 9.72064 7.5 10.1022 7.5 10.5C7.5 10.8978 7.65804 11.2794 7.93934 11.5607C8.22065 11.842 8.60218 12 9 12C9.39783 12 9.77936 11.842 10.0607 11.5607C10.342 11.2794 10.5 10.8978 10.5 10.5C10.5 10.1022 10.342 9.72064 10.0607 9.43934C9.77936 9.15804 9.39783 9 9 9ZM3.75 9.75C3.55109 9.75 3.36032 9.82902 3.21967 9.96967C3.07902 10.1103 3 10.3011 3 10.5C3 10.6989 3.07902 10.8897 3.21967 11.0303C3.36032 11.171 3.55109 11.25 3.75 11.25C3.94891 11.25 4.13968 11.171 4.28033 11.0303C4.42098 10.8897 4.5 10.6989 4.5 10.5C4.5 10.3011 4.42098 10.1103 4.28033 9.96967C4.13968 9.82902 3.94891 9.75 3.75 9.75ZM9 9.75C8.80109 9.75 8.61032 9.82902 8.46967 9.96967C8.32902 10.1103 8.25 10.3011 8.25 10.5C8.25 10.6989 8.32902 10.8897 8.46967 11.0303C8.61032 11.171 8.80109 11.25 9 11.25C9.19891 11.25 9.38968 11.171 9.53033 11.0303C9.67098 10.8897 9.75 10.6989 9.75 10.5C9.75 10.3011 9.67098 10.1103 9.53033 9.96967C9.38968 9.82902 9.19891 9.75 9 9.75Z" fill="#3B5D50"/>
</g>
<defs>
<clipPath id="clip0_143_5">
<rect width="12" height="12" fill="white"/>
</clipPath>
</defs>
</svg>
